<svg width="990" height="160" viewBox="0 0 990 160" fill="none" xmlns="http://www.w3.org/2000/svg">
<path d="M239.929 61.8267C239.588 58.3892 238.125 55.7187 235.54 53.8153C232.955 51.9119 229.446 50.9602 225.014 50.9602C222.003 50.9602 219.46 51.3864 217.386 52.2386C215.313 53.0625 213.722 54.2131 212.614 55.6903C211.534 57.1676 210.994 58.8438 210.994 60.7188C210.938 62.2812 211.264 63.6449 211.974 64.8097C212.713 65.9744 213.722 66.983 215 67.8352C216.278 68.6591 217.756 69.3835 219.432 70.0085C221.108 70.6051 222.898 71.1165 224.801 71.5426L232.642 73.4176C236.449 74.2699 239.943 75.4062 243.125 76.8267C246.307 78.2472 249.063 79.9943 251.392 82.0682C253.722 84.142 255.526 86.5852 256.804 89.3977C258.111 92.2102 258.778 95.4347 258.807 99.071C258.778 104.412 257.415 109.043 254.716 112.963C252.045 116.855 248.182 119.881 243.125 122.04C238.097 124.17 232.031 125.236 224.929 125.236C217.884 125.236 211.747 124.156 206.52 121.997C201.321 119.838 197.259 116.642 194.332 112.409C191.435 108.148 189.915 102.878 189.773 96.5994H207.628C207.827 99.5256 208.665 101.969 210.142 103.929C211.648 105.861 213.651 107.324 216.151 108.318C218.679 109.284 221.534 109.767 224.716 109.767C227.841 109.767 230.554 109.312 232.855 108.403C235.185 107.494 236.989 106.23 238.267 104.611C239.545 102.991 240.185 101.131 240.185 99.0284C240.185 97.0682 239.602 95.4205 238.438 94.0852C237.301 92.75 235.625 91.6136 233.409 90.6761C231.222 89.7386 228.537 88.8864 225.355 88.1193L215.852 85.733C208.494 83.9432 202.685 81.1449 198.423 77.3381C194.162 73.5312 192.045 68.4034 192.074 61.9545C192.045 56.6705 193.452 52.054 196.293 48.1051C199.162 44.1562 203.097 41.0739 208.097 38.858C213.097 36.642 218.778 35.5341 225.142 35.5341C231.619 35.5341 237.273 36.642 242.102 38.858C246.96 41.0739 250.739 44.1562 253.438 48.1051C256.136 52.054 257.528 56.6278 257.614 61.8267H239.929ZM289.542 125.236C285.366 125.236 281.644 124.511 278.377 123.062C275.11 121.585 272.525 119.412 270.621 116.543C268.746 113.645 267.809 110.037 267.809 105.719C267.809 102.082 268.477 99.0284 269.812 96.5568C271.147 94.0852 272.965 92.0966 275.266 90.5909C277.567 89.0852 280.181 87.9489 283.107 87.1818C286.062 86.4148 289.158 85.875 292.397 85.5625C296.204 85.1648 299.272 84.7955 301.602 84.4545C303.931 84.0852 305.621 83.5455 306.673 82.8352C307.724 82.125 308.249 81.0739 308.249 79.6818V79.4261C308.249 76.7273 307.397 74.6392 305.692 73.1619C304.016 71.6847 301.63 70.946 298.533 70.946C295.266 70.946 292.667 71.6705 290.735 73.1193C288.803 74.5398 287.525 76.3295 286.9 78.4886L270.11 77.125C270.962 73.1477 272.638 69.7102 275.138 66.8125C277.638 63.8864 280.863 61.642 284.812 60.0795C288.789 58.4886 293.391 57.6932 298.619 57.6932C302.255 57.6932 305.735 58.1193 309.059 58.9716C312.411 59.8239 315.38 61.1449 317.965 62.9347C320.579 64.7244 322.638 67.0256 324.144 69.8381C325.65 72.6222 326.403 75.9602 326.403 79.8523V124H309.187V114.923H308.675C307.624 116.969 306.218 118.773 304.457 120.335C302.695 121.869 300.579 123.077 298.107 123.957C295.636 124.81 292.781 125.236 289.542 125.236ZM294.741 112.707C297.411 112.707 299.769 112.182 301.815 111.131C303.86 110.051 305.465 108.602 306.63 106.784C307.795 104.966 308.377 102.906 308.377 100.605V93.6591C307.809 94.0284 307.028 94.3693 306.033 94.6818C305.067 94.9659 303.974 95.2358 302.752 95.4915C301.531 95.7187 300.309 95.9318 299.087 96.1307C297.866 96.3011 296.758 96.4574 295.763 96.5994C293.633 96.9119 291.772 97.4091 290.181 98.0909C288.59 98.7727 287.354 99.696 286.474 100.861C285.593 101.997 285.153 103.418 285.153 105.122C285.153 107.594 286.048 109.483 287.837 110.79C289.656 112.068 291.957 112.707 294.741 112.707ZM375.685 58.5455V72.1818H335.288V58.5455H375.685ZM344.535 124V53.8153C344.535 49.071 345.458 45.1364 347.305 42.0114C349.18 38.8864 351.737 36.5426 354.975 34.9801C358.214 33.4176 361.893 32.6364 366.012 32.6364C368.796 32.6364 371.339 32.8494 373.64 33.2756C375.969 33.7017 377.702 34.0852 378.839 34.4261L375.6 48.0625C374.89 47.8352 374.009 47.6222 372.958 47.4233C371.935 47.2244 370.884 47.125 369.805 47.125C367.134 47.125 365.273 47.75 364.222 49C363.171 50.2216 362.646 51.9403 362.646 54.1562V124H344.535ZM414.261 125.278C407.528 125.278 401.733 123.915 396.875 121.188C392.045 118.432 388.324 114.54 385.71 109.511C383.097 104.455 381.79 98.4744 381.79 91.571C381.79 84.8381 383.097 78.929 385.71 73.8438C388.324 68.7585 392.003 64.7955 396.747 61.9545C401.52 59.1136 407.116 57.6932 413.537 57.6932C417.855 57.6932 421.875 58.3892 425.597 59.7812C429.347 61.1449 432.614 63.2045 435.398 65.9602C438.21 68.7159 440.398 72.1818 441.96 76.358C443.523 80.5057 444.304 85.3636 444.304 90.9318V95.9176H389.034V84.6676H427.216C427.216 82.054 426.648 79.7386 425.511 77.7216C424.375 75.7045 422.798 74.1278 420.781 72.9915C418.793 71.8267 416.477 71.2443 413.835 71.2443C411.08 71.2443 408.636 71.8835 406.506 73.1619C404.403 74.4119 402.756 76.1023 401.562 78.233C400.369 80.3352 399.759 82.679 399.73 85.2642V95.9602C399.73 99.1989 400.327 101.997 401.52 104.355C402.741 106.713 404.46 108.531 406.676 109.81C408.892 111.088 411.52 111.727 414.56 111.727C416.577 111.727 418.423 111.443 420.099 110.875C421.776 110.307 423.21 109.455 424.403 108.318C425.597 107.182 426.506 105.79 427.131 104.142L443.92 105.25C443.068 109.284 441.321 112.807 438.679 115.818C436.065 118.801 432.685 121.131 428.537 122.807C424.418 124.455 419.659 125.278 414.261 125.278Z" fill="#8BCC58"/>
<path d="M466.165 36.7273L487.259 103.034H488.068L509.205 36.7273H529.659L499.574 124H475.795L445.668 36.7273H466.165ZM551.222 125.236C547.045 125.236 543.324 124.511 540.057 123.062C536.79 121.585 534.205 119.412 532.301 116.543C530.426 113.645 529.489 110.037 529.489 105.719C529.489 102.082 530.156 99.0284 531.491 96.5568C532.827 94.0852 534.645 92.0966 536.946 90.5909C539.247 89.0852 541.861 87.9489 544.787 87.1818C547.741 86.4148 550.838 85.875 554.077 85.5625C557.884 85.1648 560.952 84.7955 563.281 84.4545C565.611 84.0852 567.301 83.5455 568.352 82.8352C569.403 82.125 569.929 81.0739 569.929 79.6818V79.4261C569.929 76.7273 569.077 74.6392 567.372 73.1619C565.696 71.6847 563.31 70.946 560.213 70.946C556.946 70.946 554.347 71.6705 552.415 73.1193C550.483 74.5398 549.205 76.3295 548.58 78.4886L531.79 77.125C532.642 73.1477 534.318 69.7102 536.818 66.8125C539.318 63.8864 542.543 61.642 546.491 60.0795C550.469 58.4886 555.071 57.6932 560.298 57.6932C563.935 57.6932 567.415 58.1193 570.739 58.9716C574.091 59.8239 577.06 61.1449 579.645 62.9347C582.259 64.7244 584.318 67.0256 585.824 69.8381C587.33 72.6222 588.082 75.9602 588.082 79.8523V124H570.866V114.923H570.355C569.304 116.969 567.898 118.773 566.136 120.335C564.375 121.869 562.259 123.077 559.787 123.957C557.315 124.81 554.46 125.236 551.222 125.236ZM556.42 112.707C559.091 112.707 561.449 112.182 563.494 111.131C565.54 110.051 567.145 108.602 568.31 106.784C569.474 104.966 570.057 102.906 570.057 100.605V93.6591C569.489 94.0284 568.707 94.3693 567.713 94.6818C566.747 94.9659 565.653 95.2358 564.432 95.4915C563.21 95.7187 561.989 95.9318 560.767 96.1307C559.545 96.3011 558.438 96.4574 557.443 96.5994C555.313 96.9119 553.452 97.4091 551.861 98.0909C550.27 98.7727 549.034 99.696 548.153 100.861C547.273 101.997 546.832 103.418 546.832 105.122C546.832 107.594 547.727 109.483 549.517 110.79C551.335 112.068 553.636 112.707 556.42 112.707ZM620.32 36.7273V124H602.166V36.7273H620.32ZM634.862 124V58.5455H653.015V124H634.862ZM643.981 50.108C641.282 50.108 638.967 49.2131 637.035 47.4233C635.131 45.6051 634.18 43.4318 634.18 40.9034C634.18 38.4034 635.131 36.2585 637.035 34.4688C638.967 32.6506 641.282 31.7415 643.981 31.7415C646.68 31.7415 648.981 32.6506 650.884 34.4688C652.816 36.2585 653.782 38.4034 653.782 40.9034C653.782 43.4318 652.816 45.6051 650.884 47.4233C648.981 49.2131 646.68 50.108 643.981 50.108ZM691.676 125.065C686.705 125.065 682.202 123.787 678.168 121.23C674.162 118.645 670.98 114.852 668.622 109.852C666.293 104.824 665.128 98.6591 665.128 91.358C665.128 83.858 666.335 77.6222 668.75 72.6506C671.165 67.6506 674.375 63.9148 678.381 61.4432C682.415 58.9432 686.832 57.6932 691.634 57.6932C695.298 57.6932 698.352 58.3182 700.795 59.5682C703.267 60.7898 705.256 62.3239 706.761 64.1705C708.295 65.9886 709.46 67.7784 710.256 69.5398H710.81V36.7273H728.92V124H711.023V113.517H710.256C709.403 115.335 708.196 117.139 706.634 118.929C705.099 120.69 703.097 122.153 700.625 123.318C698.182 124.483 695.199 125.065 691.676 125.065ZM697.429 110.619C700.355 110.619 702.827 109.824 704.844 108.233C706.889 106.614 708.452 104.355 709.531 101.457C710.639 98.5597 711.193 95.1648 711.193 91.2727C711.193 87.3807 710.653 84 709.574 81.1307C708.494 78.2614 706.932 76.0455 704.886 74.483C702.841 72.9205 700.355 72.1392 697.429 72.1392C694.446 72.1392 691.932 72.9489 689.886 74.5682C687.841 76.1875 686.293 78.4318 685.241 81.3011C684.19 84.1705 683.665 87.4943 683.665 91.2727C683.665 95.0795 684.19 98.446 685.241 101.372C686.321 104.27 687.869 106.543 689.886 108.19C691.932 109.81 694.446 110.619 697.429 110.619ZM762.511 125.236C758.335 125.236 754.613 124.511 751.346 123.062C748.079 121.585 745.494 119.412 743.59 116.543C741.715 113.645 740.778 110.037 740.778 105.719C740.778 102.082 741.445 99.0284 742.781 96.5568C744.116 94.0852 745.934 92.0966 748.235 90.5909C750.536 89.0852 753.15 87.9489 756.076 87.1818C759.031 86.4148 762.127 85.875 765.366 85.5625C769.173 85.1648 772.241 84.7955 774.57 84.4545C776.9 84.0852 778.59 83.5455 779.641 82.8352C780.692 82.125 781.218 81.0739 781.218 79.6818V79.4261C781.218 76.7273 780.366 74.6392 778.661 73.1619C776.985 71.6847 774.599 70.946 771.502 70.946C768.235 70.946 765.636 71.6705 763.704 73.1193C761.772 74.5398 760.494 76.3295 759.869 78.4886L743.079 77.125C743.931 73.1477 745.607 69.7102 748.107 66.8125C750.607 63.8864 753.832 61.642 757.781 60.0795C761.758 58.4886 766.36 57.6932 771.587 57.6932C775.224 57.6932 778.704 58.1193 782.028 58.9716C785.38 59.8239 788.349 61.1449 790.934 62.9347C793.548 64.7244 795.607 67.0256 797.113 69.8381C798.619 72.6222 799.371 75.9602 799.371 79.8523V124H782.156V114.923H781.644C780.593 116.969 779.187 118.773 777.425 120.335C775.664 121.869 773.548 123.077 771.076 123.957C768.604 124.81 765.749 125.236 762.511 125.236ZM767.71 112.707C770.38 112.707 772.738 112.182 774.783 111.131C776.829 110.051 778.434 108.602 779.599 106.784C780.763 104.966 781.346 102.906 781.346 100.605V93.6591C780.778 94.0284 779.996 94.3693 779.002 94.6818C778.036 94.9659 776.942 95.2358 775.721 95.4915C774.499 95.7187 773.278 95.9318 772.056 96.1307C770.835 96.3011 769.727 96.4574 768.732 96.5994C766.602 96.9119 764.741 97.4091 763.15 98.0909C761.559 98.7727 760.323 99.696 759.442 100.861C758.562 101.997 758.121 103.418 758.121 105.122C758.121 107.594 759.016 109.483 760.806 110.79C762.624 112.068 764.925 112.707 767.71 112.707ZM848.271 58.5455V72.1818H808.853V58.5455H848.271ZM817.802 42.8636H835.955V103.886C835.955 105.562 836.211 106.869 836.722 107.807C837.234 108.716 837.944 109.355 838.853 109.724C839.79 110.094 840.87 110.278 842.092 110.278C842.944 110.278 843.796 110.207 844.648 110.065C845.501 109.895 846.154 109.767 846.609 109.682L849.464 123.19C848.555 123.474 847.276 123.801 845.629 124.17C843.981 124.568 841.978 124.81 839.62 124.895C835.245 125.065 831.41 124.483 828.114 123.148C824.847 121.812 822.305 119.739 820.487 116.926C818.668 114.114 817.773 110.562 817.802 106.273V42.8636ZM888.967 125.278C882.347 125.278 876.623 123.872 871.793 121.06C866.992 118.219 863.285 114.27 860.671 109.213C858.058 104.128 856.751 98.233 856.751 91.5284C856.751 84.767 858.058 78.858 860.671 73.8011C863.285 68.7159 866.992 64.767 871.793 61.9545C876.623 59.1136 882.347 57.6932 888.967 57.6932C895.586 57.6932 901.296 59.1136 906.097 61.9545C910.927 64.767 914.648 68.7159 917.262 73.8011C919.876 78.858 921.183 84.767 921.183 91.5284C921.183 98.233 919.876 104.128 917.262 109.213C914.648 114.27 910.927 118.219 906.097 121.06C901.296 123.872 895.586 125.278 888.967 125.278ZM889.052 111.216C892.063 111.216 894.577 110.364 896.594 108.659C898.612 106.926 900.131 104.568 901.154 101.585C902.205 98.6023 902.731 95.2074 902.731 91.4006C902.731 87.5938 902.205 84.1989 901.154 81.2159C900.131 78.233 898.612 75.875 896.594 74.142C894.577 72.4091 892.063 71.5426 889.052 71.5426C886.012 71.5426 883.455 72.4091 881.381 74.142C879.336 75.875 877.788 78.233 876.737 81.2159C875.714 84.1989 875.202 87.5938 875.202 91.4006C875.202 95.2074 875.714 98.6023 876.737 101.585C877.788 104.568 879.336 106.926 881.381 108.659C883.455 110.364 886.012 111.216 889.052 111.216ZM932.987 124V58.5455H950.586V69.9659H951.268C952.461 65.9034 954.464 62.8352 957.276 60.7614C960.089 58.6591 963.327 57.608 966.992 57.608C967.901 57.608 968.881 57.6648 969.933 57.7784C970.984 57.892 971.907 58.0483 972.702 58.2472V74.3551C971.85 74.0994 970.671 73.8722 969.165 73.6733C967.66 73.4744 966.282 73.375 965.032 73.375C962.362 73.375 959.975 73.9574 957.873 75.1222C955.799 76.2585 954.151 77.8494 952.93 79.8949C951.737 81.9403 951.14 84.2983 951.14 86.9688V124H932.987Z" fill="#FFF8F8"/>
<path d="M123.409 0H43.4092C21.3178 0 3.40918 17.9086 3.40918 40.0001V120C3.40918 142.092 21.3178 160 43.4092 160H123.409C145.501 160 163.409 142.092 163.409 120V40.0001C163.409 17.9086 145.501 0 123.409 0Z" fill="white"/>
<g filter="url(#filter0_d_5762_1381)">
<rect x="12.4844" y="90.4512" width="47.4728" height="30.1819" transform="rotate(-37.6696 12.4844 90.4512)" fill="#B6E7A4"/>
<path d="M126.089 39.9249L114.774 49.4503L69.4206 86.0156L59.2583 72.8263L50.2763 60.7025L27.2731 79.2482L36.2551 91.372L54.9675 116.63L63.5176 128.698L75.2639 119.228L132.364 73.1926L144.11 63.7224L126.089 39.9249Z" fill="white"/>
</g>
<path d="M123.405 0H43.4053C21.3139 0 3.40527 17.9086 3.40527 40.0001V120C3.40527 142.092 21.3139 160 43.4053 160H123.405C145.497 160 163.405 142.092 163.405 120V40.0001C163.405 17.9086 145.497 0 123.405 0Z" fill="white"/>
<g filter="url(#filter1_d_5762_1381)">
<rect x="4.35449" y="80.0176" width="57.0217" height="30.1819" transform="rotate(-38.2037 4.35449 80.0176)" fill="#645D5D"/>
<path d="M143.197 47.6041L131.883 57.1295L86.529 93.6948L76.3667 80.5055L67.3847 68.3817L44.3815 86.9274L53.3635 99.0512L72.0759 124.309L80.626 136.377L92.3723 126.907L149.472 80.8718L161.219 71.4016L143.197 47.6041Z" fill="white"/>
</g>
<path d="M123.408 0H43.4082C21.3168 0 3.4082 17.9086 3.4082 40.0001V120C3.4082 142.092 21.3168 160 43.4082 160H123.408C145.5 160 163.408 142.092 163.408 120V40.0001C163.408 17.9086 145.5 0 123.408 0Z" fill="white"/>
<g filter="url(#filter2_d_5762_1381)">
<rect x="12.4834" y="90.4512" width="47.4728" height="30.1819" transform="rotate(-37.6696 12.4834 90.4512)" fill="#B6E7A4"/>
<path d="M126.088 39.9249L114.773 49.4503L69.4196 86.0156L59.2573 72.8263L50.2754 60.7025L27.2722 79.2482L36.2541 91.372L54.9665 116.63L63.5166 128.698L75.2629 119.228L132.363 73.1926L144.109 63.7224L126.088 39.9249Z" fill="white"/>
</g>
<path d="M123.405 0H43.4053C21.3139 0 3.40527 17.9086 3.40527 40.0001V120C3.40527 142.092 21.3139 160 43.4053 160H123.405C145.497 160 163.405 142.092 163.405 120V40.0001C163.405 17.9086 145.497 0 123.405 0Z" fill="white"/>
<path d="M106.688 45.6318C103.574 45.6318 100.647 46.8444 98.4449 49.0462C93.8999 53.5914 93.8999 60.987 98.4449 65.5322C100.647 67.734 103.574 68.9466 106.688 68.9466C109.801 68.9466 112.729 67.734 114.931 65.5322C119.476 60.987 119.476 53.5914 114.931 49.0462C112.729 46.8444 109.802 45.6318 106.688 45.6318ZM110.426 61.0271C109.427 62.0257 108.1 62.5757 106.688 62.5757C105.276 62.5757 103.948 62.0257 102.95 61.0274C100.888 58.9662 100.888 55.6123 102.95 53.5511C103.948 52.5526 105.276 52.0027 106.688 52.0027C108.1 52.0027 109.427 52.5526 110.426 53.5511C112.487 55.6123 112.487 58.9659 110.426 61.0271Z" fill="#8BCC58"/>
<path d="M123.838 40.1393C117.944 34.2458 110.108 31 101.774 31C93.4388 31 85.603 34.2458 79.7097 40.1393C70.7424 49.1066 68.1378 62.4755 72.9002 74.0533L30.035 116.919L30 133.965L60.6997 134V122.167H72.5294V110.337H84.3592V96.6412L89.9256 91.0747C93.6664 92.6044 97.719 93.4056 101.775 93.4056C110.109 93.4056 117.945 90.1603 123.838 84.2672C136.004 72.1011 136.004 52.3054 123.838 40.1393ZM119.333 79.7623C114.643 84.4519 108.408 87.0347 101.775 87.0347C97.9245 87.0347 94.0799 86.129 90.6574 84.4156L88.6035 83.3874L77.9883 94.0024V103.966H66.1585V115.796H54.3288V127.622L36.3841 127.601L36.4006 119.564L80.5897 75.3734L79.5614 73.3194C74.768 63.7446 76.6378 52.2209 84.2145 44.6442C88.9048 39.9539 95.1407 37.3709 101.774 37.3709C108.407 37.3709 114.642 39.9539 119.333 44.6442C129.015 54.3262 129.015 70.0802 119.333 79.7623Z" fill="#8BCC58"/>
<defs>
<filter id="filter0_d_5762_1381" x="8.48438" y="39.9248" width="139.626" height="96.7734" filterUnits="userSpaceOnUse" color-interpolation-filters="sRGB">
<feFlood flood-opacity="0" result="BackgroundImageFix"/>
<feColorMatrix in="SourceAlpha" type="matrix" values="0 0 0 0 0 0 0 0 0 0 0 0 0 0 0 0 0 0 127 0" result="hardAlpha"/>
<feOffset dy="4"/>
<feGaussianBlur stdDeviation="2"/>
<feComposite in2="hardAlpha" operator="out"/>
<feColorMatrix type="matrix" values="0 0 0 0 0 0 0 0 0 0 0 0 0 0 0 0 0 0 0.25 0"/>
<feBlend mode="normal" in2="BackgroundImageFix" result="effect1_dropShadow_5762_1381"/>
<feBlend mode="normal" in="SourceGraphic" in2="effect1_dropShadow_5762_1381" result="shape"/>
</filter>
<filter id="filter1_d_5762_1381" x="0.354492" y="44.752" width="164.864" height="99.6255" filterUnits="userSpaceOnUse" color-interpolation-filters="sRGB">
<feFlood flood-opacity="0" result="BackgroundImageFix"/>
<feColorMatrix in="SourceAlpha" type="matrix" values="0 0 0 0 0 0 0 0 0 0 0 0 0 0 0 0 0 0 127 0" result="hardAlpha"/>
<feOffset dy="4"/>
<feGaussianBlur stdDeviation="2"/>
<feComposite in2="hardAlpha" operator="out"/>
<feColorMatrix type="matrix" values="0 0 0 0 0 0 0 0 0 0 0 0 0 0 0 0 0 0 0.25 0"/>
<feBlend mode="normal" in2="BackgroundImageFix" result="effect1_dropShadow_5762_1381"/>
<feBlend mode="normal" in="SourceGraphic" in2="effect1_dropShadow_5762_1381" result="shape"/>
</filter>
<filter id="filter2_d_5762_1381" x="8.4834" y="39.9248" width="139.626" height="96.7734" filterUnits="userSpaceOnUse" color-interpolation-filters="sRGB">
<feFlood flood-opacity="0" result="BackgroundImageFix"/>
<feColorMatrix in="SourceAlpha" type="matrix" values="0 0 0 0 0 0 0 0 0 0 0 0 0 0 0 0 0 0 127 0" result="hardAlpha"/>
<feOffset dy="4"/>
<feGaussianBlur stdDeviation="2"/>
<feComposite in2="hardAlpha" operator="out"/>
<feColorMatrix type="matrix" values="0 0 0 0 0 0 0 0 0 0 0 0 0 0 0 0 0 0 0.25 0"/>
<feBlend mode="normal" in2="BackgroundImageFix" result="effect1_dropShadow_5762_1381"/>
<feBlend mode="normal" in="SourceGraphic" in2="effect1_dropShadow_5762_1381" result="shape"/>
</filter>
</defs>
</svg>
