<svg width="990" height="160" viewBox="0 0 990 160" fill="none" xmlns="http://www.w3.org/2000/svg">
<path d="M239.929 61.8267C239.588 58.3892 238.125 55.7187 235.54 53.8153C232.955 51.9119 229.446 50.9602 225.014 50.9602C222.003 50.9602 219.46 51.3864 217.386 52.2386C215.313 53.0625 213.722 54.2131 212.614 55.6903C211.534 57.1676 210.994 58.8438 210.994 60.7188C210.938 62.2812 211.264 63.6449 211.974 64.8097C212.713 65.9744 213.722 66.983 215 67.8352C216.278 68.6591 217.756 69.3835 219.432 70.0085C221.108 70.6051 222.898 71.1165 224.801 71.5426L232.642 73.4176C236.449 74.2699 239.943 75.4062 243.125 76.8267C246.307 78.2472 249.063 79.9943 251.392 82.0682C253.722 84.142 255.526 86.5852 256.804 89.3977C258.111 92.2102 258.778 95.4347 258.807 99.071C258.778 104.412 257.415 109.043 254.716 112.963C252.045 116.855 248.182 119.881 243.125 122.04C238.097 124.17 232.031 125.236 224.929 125.236C217.884 125.236 211.747 124.156 206.52 121.997C201.321 119.838 197.259 116.642 194.332 112.409C191.435 108.148 189.915 102.878 189.773 96.5994H207.628C207.827 99.5256 208.665 101.969 210.142 103.929C211.648 105.861 213.651 107.324 216.151 108.318C218.679 109.284 221.534 109.767 224.716 109.767C227.841 109.767 230.554 109.312 232.855 108.403C235.185 107.494 236.989 106.23 238.267 104.611C239.545 102.991 240.185 101.131 240.185 99.0284C240.185 97.0682 239.602 95.4205 238.438 94.0852C237.301 92.75 235.625 91.6136 233.409 90.6761C231.222 89.7386 228.537 88.8864 225.355 88.1193L215.852 85.733C208.494 83.9432 202.685 81.1449 198.423 77.3381C194.162 73.5312 192.045 68.4034 192.074 61.9545C192.045 56.6705 193.452 52.054 196.293 48.1051C199.162 44.1562 203.097 41.0739 208.097 38.858C213.097 36.642 218.778 35.5341 225.142 35.5341C231.619 35.5341 237.273 36.642 242.102 38.858C246.96 41.0739 250.739 44.1562 253.438 48.1051C256.136 52.054 257.528 56.6278 257.614 61.8267H239.929ZM289.542 125.236C285.366 125.236 281.644 124.511 278.377 123.062C275.11 121.585 272.525 119.412 270.621 116.543C268.746 113.645 267.809 110.037 267.809 105.719C267.809 102.082 268.477 99.0284 269.812 96.5568C271.147 94.0852 272.965 92.0966 275.266 90.5909C277.567 89.0852 280.181 87.9489 283.107 87.1818C286.062 86.4148 289.158 85.875 292.397 85.5625C296.204 85.1648 299.272 84.7955 301.602 84.4545C303.931 84.0852 305.621 83.5455 306.673 82.8352C307.724 82.125 308.249 81.0739 308.249 79.6818V79.4261C308.249 76.7273 307.397 74.6392 305.692 73.1619C304.016 71.6847 301.63 70.946 298.533 70.946C295.266 70.946 292.667 71.6705 290.735 73.1193C288.803 74.5398 287.525 76.3295 286.9 78.4886L270.11 77.125C270.962 73.1477 272.638 69.7102 275.138 66.8125C277.638 63.8864 280.863 61.642 284.812 60.0795C288.789 58.4886 293.391 57.6932 298.619 57.6932C302.255 57.6932 305.735 58.1193 309.059 58.9716C312.411 59.8239 315.38 61.1449 317.965 62.9347C320.579 64.7244 322.638 67.0256 324.144 69.8381C325.65 72.6222 326.403 75.9602 326.403 79.8523V124H309.187V114.923H308.675C307.624 116.969 306.218 118.773 304.457 120.335C302.695 121.869 300.579 123.077 298.107 123.957C295.636 124.81 292.781 125.236 289.542 125.236ZM294.741 112.707C297.411 112.707 299.769 112.182 301.815 111.131C303.86 110.051 305.465 108.602 306.63 106.784C307.795 104.966 308.377 102.906 308.377 100.605V93.6591C307.809 94.0284 307.028 94.3693 306.033 94.6818C305.067 94.9659 303.974 95.2358 302.752 95.4915C301.531 95.7187 300.309 95.9318 299.087 96.1307C297.866 96.3011 296.758 96.4574 295.763 96.5994C293.633 96.9119 291.772 97.4091 290.181 98.0909C288.59 98.7727 287.354 99.696 286.474 100.861C285.593 101.997 285.153 103.418 285.153 105.122C285.153 107.594 286.048 109.483 287.837 110.79C289.656 112.068 291.957 112.707 294.741 112.707ZM375.685 58.5455V72.1818H335.288V58.5455H375.685ZM344.535 124V53.8153C344.535 49.071 345.458 45.1364 347.305 42.0114C349.18 38.8864 351.737 36.5426 354.975 34.9801C358.214 33.4176 361.893 32.6364 366.012 32.6364C368.796 32.6364 371.339 32.8494 373.64 33.2756C375.969 33.7017 377.702 34.0852 378.839 34.4261L375.6 48.0625C374.89 47.8352 374.009 47.6222 372.958 47.4233C371.935 47.2244 370.884 47.125 369.805 47.125C367.134 47.125 365.273 47.75 364.222 49C363.171 50.2216 362.646 51.9403 362.646 54.1562V124H344.535ZM414.261 125.278C407.528 125.278 401.733 123.915 396.875 121.188C392.045 118.432 388.324 114.54 385.71 109.511C383.097 104.455 381.79 98.4744 381.79 91.571C381.79 84.8381 383.097 78.929 385.71 73.8438C388.324 68.7585 392.003 64.7955 396.747 61.9545C401.52 59.1136 407.116 57.6932 413.537 57.6932C417.855 57.6932 421.875 58.3892 425.597 59.7812C429.347 61.1449 432.614 63.2045 435.398 65.9602C438.21 68.7159 440.398 72.1818 441.96 76.358C443.523 80.5057 444.304 85.3636 444.304 90.9318V95.9176H389.034V84.6676H427.216C427.216 82.054 426.648 79.7386 425.511 77.7216C424.375 75.7045 422.798 74.1278 420.781 72.9915C418.793 71.8267 416.477 71.2443 413.835 71.2443C411.08 71.2443 408.636 71.8835 406.506 73.1619C404.403 74.4119 402.756 76.1023 401.562 78.233C400.369 80.3352 399.759 82.679 399.73 85.2642V95.9602C399.73 99.1989 400.327 101.997 401.52 104.355C402.741 106.713 404.46 108.531 406.676 109.81C408.892 111.088 411.52 111.727 414.56 111.727C416.577 111.727 418.423 111.443 420.099 110.875C421.776 110.307 423.21 109.455 424.403 108.318C425.597 107.182 426.506 105.79 427.131 104.142L443.92 105.25C443.068 109.284 441.321 112.807 438.679 115.818C436.065 118.801 432.685 121.131 428.537 122.807C424.418 124.455 419.659 125.278 414.261 125.278Z" fill="#8BCC58"/>
<path d="M503.835 61.8267C503.494 58.3892 502.031 55.7187 499.446 53.8153C496.861 51.9119 493.352 50.9602 488.92 50.9602C485.909 50.9602 483.366 51.3864 481.293 52.2386C479.219 53.0625 477.628 54.2131 476.52 55.6903C475.44 57.1676 474.901 58.8438 474.901 60.7188C474.844 62.2812 475.17 63.6449 475.881 64.8097C476.619 65.9744 477.628 66.983 478.906 67.8352C480.185 68.6591 481.662 69.3835 483.338 70.0085C485.014 70.6051 486.804 71.1165 488.707 71.5426L496.548 73.4176C500.355 74.2699 503.849 75.4062 507.031 76.8267C510.213 78.2472 512.969 79.9943 515.298 82.0682C517.628 84.142 519.432 86.5852 520.71 89.3977C522.017 92.2102 522.685 95.4347 522.713 99.071C522.685 104.412 521.321 109.043 518.622 112.963C515.952 116.855 512.088 119.881 507.031 122.04C502.003 124.17 495.938 125.236 488.835 125.236C481.79 125.236 475.653 124.156 470.426 121.997C465.227 119.838 461.165 116.642 458.239 112.409C455.341 108.148 453.821 102.878 453.679 96.5994H471.534C471.733 99.5256 472.571 101.969 474.048 103.929C475.554 105.861 477.557 107.324 480.057 108.318C482.585 109.284 485.44 109.767 488.622 109.767C491.747 109.767 494.46 109.312 496.761 108.403C499.091 107.494 500.895 106.23 502.173 104.611C503.452 102.991 504.091 101.131 504.091 99.0284C504.091 97.0682 503.509 95.4205 502.344 94.0852C501.207 92.75 499.531 91.6136 497.315 90.6761C495.128 89.7386 492.443 88.8864 489.261 88.1193L479.759 85.733C472.401 83.9432 466.591 81.1449 462.33 77.3381C458.068 73.5312 455.952 68.4034 455.98 61.9545C455.952 56.6705 457.358 52.054 460.199 48.1051C463.068 44.1562 467.003 41.0739 472.003 38.858C477.003 36.642 482.685 35.5341 489.048 35.5341C495.526 35.5341 501.179 36.642 506.009 38.858C510.866 41.0739 514.645 44.1562 517.344 48.1051C520.043 52.054 521.435 56.6278 521.52 61.8267H503.835ZM564.613 125.278C557.88 125.278 552.085 123.915 547.227 121.188C542.397 118.432 538.675 114.54 536.062 109.511C533.448 104.455 532.141 98.4744 532.141 91.571C532.141 84.8381 533.448 78.929 536.062 73.8438C538.675 68.7585 542.354 64.7955 547.099 61.9545C551.871 59.1136 557.468 57.6932 563.888 57.6932C568.207 57.6932 572.227 58.3892 575.948 59.7812C579.698 61.1449 582.965 63.2045 585.749 65.9602C588.562 68.7159 590.749 72.1818 592.312 76.358C593.874 80.5057 594.656 85.3636 594.656 90.9318V95.9176H539.386V84.6676H577.567C577.567 82.054 576.999 79.7386 575.863 77.7216C574.727 75.7045 573.15 74.1278 571.133 72.9915C569.144 71.8267 566.829 71.2443 564.187 71.2443C561.431 71.2443 558.988 71.8835 556.857 73.1619C554.755 74.4119 553.107 76.1023 551.914 78.233C550.721 80.3352 550.11 82.679 550.082 85.2642V95.9602C550.082 99.1989 550.678 101.997 551.871 104.355C553.093 106.713 554.812 108.531 557.028 109.81C559.244 111.088 561.871 111.727 564.911 111.727C566.928 111.727 568.775 111.443 570.451 110.875C572.127 110.307 573.562 109.455 574.755 108.318C575.948 107.182 576.857 105.79 577.482 104.142L594.272 105.25C593.42 109.284 591.673 112.807 589.031 115.818C586.417 118.801 583.036 121.131 578.888 122.807C574.769 124.455 570.011 125.278 564.613 125.278ZM660.962 77.2102L644.343 78.233C644.059 76.8125 643.448 75.5341 642.511 74.3977C641.573 73.233 640.337 72.3097 638.803 71.6278C637.298 70.9176 635.494 70.5625 633.391 70.5625C630.579 70.5625 628.207 71.1591 626.275 72.3523C624.343 73.517 623.377 75.0795 623.377 77.0398C623.377 78.6023 624.002 79.9233 625.252 81.0028C626.502 82.0824 628.647 82.9489 631.687 83.6023L643.533 85.9886C649.897 87.2955 654.641 89.3977 657.766 92.2955C660.891 95.1932 662.454 99 662.454 103.716C662.454 108.006 661.19 111.77 658.661 115.009C656.161 118.247 652.724 120.776 648.349 122.594C644.002 124.384 638.988 125.278 633.306 125.278C624.641 125.278 617.738 123.474 612.596 119.866C607.482 116.23 604.485 111.287 603.604 105.037L621.46 104.099C621.999 106.741 623.306 108.759 625.38 110.151C627.454 111.514 630.11 112.196 633.349 112.196C636.531 112.196 639.087 111.585 641.019 110.364C642.979 109.114 643.974 107.509 644.002 105.548C643.974 103.901 643.278 102.551 641.914 101.5C640.55 100.42 638.448 99.5966 635.607 99.0284L624.272 96.7699C617.88 95.4915 613.121 93.2756 609.996 90.1222C606.9 86.9687 605.352 82.9489 605.352 78.0625C605.352 73.858 606.488 70.2358 608.761 67.196C611.062 64.1562 614.286 61.8125 618.434 60.1648C622.61 58.517 627.496 57.6932 633.093 57.6932C641.36 57.6932 647.866 59.4403 652.61 62.9347C657.383 66.429 660.167 71.1875 660.962 77.2102ZM728.345 77.2102L711.726 78.233C711.442 76.8125 710.831 75.5341 709.893 74.3977C708.956 73.233 707.72 72.3097 706.186 71.6278C704.68 70.9176 702.876 70.5625 700.774 70.5625C697.962 70.5625 695.589 71.1591 693.658 72.3523C691.726 73.517 690.76 75.0795 690.76 77.0398C690.76 78.6023 691.385 79.9233 692.635 81.0028C693.885 82.0824 696.03 82.9489 699.07 83.6023L710.916 85.9886C717.28 87.2955 722.024 89.3977 725.149 92.2955C728.274 95.1932 729.837 99 729.837 103.716C729.837 108.006 728.572 111.77 726.044 115.009C723.544 118.247 720.107 120.776 715.732 122.594C711.385 124.384 706.371 125.278 700.689 125.278C692.024 125.278 685.121 123.474 679.979 119.866C674.865 116.23 671.868 111.287 670.987 105.037L688.842 104.099C689.382 106.741 690.689 108.759 692.763 110.151C694.837 111.514 697.493 112.196 700.732 112.196C703.913 112.196 706.47 111.585 708.402 110.364C710.362 109.114 711.357 107.509 711.385 105.548C711.357 103.901 710.661 102.551 709.297 101.5C707.933 100.42 705.831 99.5966 702.99 99.0284L691.655 96.7699C685.263 95.4915 680.504 93.2756 677.379 90.1222C674.283 86.9687 672.734 82.9489 672.734 78.0625C672.734 73.858 673.871 70.2358 676.143 67.196C678.445 64.1562 681.669 61.8125 685.817 60.1648C689.993 58.517 694.879 57.6932 700.476 57.6932C708.743 57.6932 715.249 59.4403 719.993 62.9347C724.766 66.429 727.55 71.1875 728.345 77.2102ZM741.268 124V58.5455H759.421V124H741.268ZM750.387 50.108C747.688 50.108 745.373 49.2131 743.441 47.4233C741.538 45.6051 740.586 43.4318 740.586 40.9034C740.586 38.4034 741.538 36.2585 743.441 34.4688C745.373 32.6506 747.688 31.7415 750.387 31.7415C753.086 31.7415 755.387 32.6506 757.29 34.4688C759.222 36.2585 760.188 38.4034 760.188 40.9034C760.188 43.4318 759.222 45.6051 757.29 47.4233C755.387 49.2131 753.086 50.108 750.387 50.108ZM803.537 125.278C796.918 125.278 791.193 123.872 786.364 121.06C781.563 118.219 777.855 114.27 775.241 109.213C772.628 104.128 771.321 98.233 771.321 91.5284C771.321 84.767 772.628 78.858 775.241 73.8011C777.855 68.7159 781.563 64.767 786.364 61.9545C791.193 59.1136 796.918 57.6932 803.537 57.6932C810.156 57.6932 815.866 59.1136 820.668 61.9545C825.497 64.767 829.219 68.7159 831.832 73.8011C834.446 78.858 835.753 84.767 835.753 91.5284C835.753 98.233 834.446 104.128 831.832 109.213C829.219 114.27 825.497 118.219 820.668 121.06C815.866 123.872 810.156 125.278 803.537 125.278ZM803.622 111.216C806.634 111.216 809.148 110.364 811.165 108.659C813.182 106.926 814.702 104.568 815.724 101.585C816.776 98.6023 817.301 95.2074 817.301 91.4006C817.301 87.5938 816.776 84.1989 815.724 81.2159C814.702 78.233 813.182 75.875 811.165 74.142C809.148 72.4091 806.634 71.5426 803.622 71.5426C800.582 71.5426 798.026 72.4091 795.952 74.142C793.906 75.875 792.358 78.233 791.307 81.2159C790.284 84.1989 789.773 87.5938 789.773 91.4006C789.773 95.2074 790.284 98.6023 791.307 101.585C792.358 104.568 793.906 106.926 795.952 108.659C798.026 110.364 800.582 111.216 803.622 111.216ZM865.71 86.1591V124H847.557V58.5455H864.858V70.0938H865.625C867.074 66.2869 869.503 63.2756 872.912 61.0597C876.321 58.8153 880.455 57.6932 885.312 57.6932C889.858 57.6932 893.821 58.6875 897.202 60.6761C900.582 62.6648 903.21 65.5057 905.085 69.1989C906.96 72.8636 907.898 77.2386 907.898 82.3239V124H889.744V85.5625C889.773 81.5568 888.75 78.4318 886.676 76.1875C884.602 73.9148 881.747 72.7784 878.111 72.7784C875.668 72.7784 873.509 73.304 871.634 74.3551C869.787 75.4062 868.338 76.9403 867.287 78.9574C866.264 80.946 865.739 83.3466 865.71 86.1591Z" fill="#FFF8F8"/>
<path d="M123.409 0H43.4092C21.3178 0 3.40918 17.9086 3.40918 40.0001V120C3.40918 142.092 21.3178 160 43.4092 160H123.409C145.501 160 163.409 142.092 163.409 120V40.0001C163.409 17.9086 145.501 0 123.409 0Z" fill="white"/>
<g filter="url(#filter0_d_5756_1409)">
<rect x="12.4844" y="90.4512" width="47.4728" height="30.1819" transform="rotate(-37.6696 12.4844 90.4512)" fill="#B6E7A4"/>
<path d="M126.089 39.9249L114.774 49.4503L69.4206 86.0156L59.2583 72.8263L50.2763 60.7025L27.2731 79.2482L36.2551 91.372L54.9675 116.63L63.5176 128.698L75.2639 119.228L132.364 73.1926L144.11 63.7224L126.089 39.9249Z" fill="white"/>
</g>
<path d="M123.405 0H43.4053C21.3139 0 3.40527 17.9086 3.40527 40.0001V120C3.40527 142.092 21.3139 160 43.4053 160H123.405C145.497 160 163.405 142.092 163.405 120V40.0001C163.405 17.9086 145.497 0 123.405 0Z" fill="white"/>
<g filter="url(#filter1_d_5756_1409)">
<rect x="4.35449" y="80.0176" width="57.0217" height="30.1819" transform="rotate(-38.2037 4.35449 80.0176)" fill="#645D5D"/>
<path d="M143.197 47.6041L131.883 57.1295L86.529 93.6948L76.3667 80.5055L67.3847 68.3817L44.3815 86.9274L53.3635 99.0512L72.0759 124.309L80.626 136.377L92.3723 126.907L149.472 80.8718L161.219 71.4016L143.197 47.6041Z" fill="white"/>
</g>
<path d="M123.408 0H43.4082C21.3168 0 3.4082 17.9086 3.4082 40.0001V120C3.4082 142.092 21.3168 160 43.4082 160H123.408C145.5 160 163.408 142.092 163.408 120V40.0001C163.408 17.9086 145.5 0 123.408 0Z" fill="white"/>
<g filter="url(#filter2_d_5756_1409)">
<rect x="12.4834" y="90.4512" width="47.4728" height="30.1819" transform="rotate(-37.6696 12.4834 90.4512)" fill="#B6E7A4"/>
<path d="M126.088 39.9249L114.773 49.4503L69.4196 86.0156L59.2573 72.8263L50.2754 60.7025L27.2722 79.2482L36.2541 91.372L54.9665 116.63L63.5166 128.698L75.2629 119.228L132.363 73.1926L144.109 63.7224L126.088 39.9249Z" fill="white"/>
</g>
<path d="M123.405 0H43.4053C21.3139 0 3.40527 17.9086 3.40527 40.0001V120C3.40527 142.092 21.3139 160 43.4053 160H123.405C145.497 160 163.405 142.092 163.405 120V40.0001C163.405 17.9086 145.497 0 123.405 0Z" fill="white"/>
<path d="M106.688 45.6318C103.574 45.6318 100.647 46.8444 98.4449 49.0462C93.8999 53.5914 93.8999 60.987 98.4449 65.5322C100.647 67.734 103.574 68.9466 106.688 68.9466C109.801 68.9466 112.729 67.734 114.931 65.5322C119.476 60.987 119.476 53.5914 114.931 49.0462C112.729 46.8444 109.802 45.6318 106.688 45.6318ZM110.426 61.0271C109.427 62.0257 108.1 62.5757 106.688 62.5757C105.276 62.5757 103.948 62.0257 102.95 61.0274C100.888 58.9662 100.888 55.6123 102.95 53.5511C103.948 52.5526 105.276 52.0027 106.688 52.0027C108.1 52.0027 109.427 52.5526 110.426 53.5511C112.487 55.6123 112.487 58.9659 110.426 61.0271Z" fill="#645D5D"/>
<path d="M123.838 40.1393C117.944 34.2458 110.108 31 101.774 31C93.4388 31 85.603 34.2458 79.7097 40.1393C70.7424 49.1066 68.1378 62.4755 72.9002 74.0533L30.035 116.919L30 133.965L60.6997 134V122.167H72.5294V110.337H84.3592V96.6412L89.9256 91.0747C93.6664 92.6044 97.719 93.4056 101.775 93.4056C110.109 93.4056 117.945 90.1603 123.838 84.2672C136.004 72.1011 136.004 52.3054 123.838 40.1393ZM119.333 79.7623C114.643 84.4519 108.408 87.0347 101.775 87.0347C97.9245 87.0347 94.0799 86.129 90.6574 84.4156L88.6035 83.3874L77.9883 94.0024V103.966H66.1585V115.796H54.3288V127.622L36.3841 127.601L36.4006 119.564L80.5897 75.3734L79.5614 73.3194C74.768 63.7446 76.6378 52.2209 84.2145 44.6442C88.9048 39.9539 95.1407 37.3709 101.774 37.3709C108.407 37.3709 114.642 39.9539 119.333 44.6442C129.015 54.3262 129.015 70.0802 119.333 79.7623Z" fill="#645D5D"/>
<defs>
<filter id="filter0_d_5756_1409" x="8.48438" y="39.9248" width="139.626" height="96.7734" filterUnits="userSpaceOnUse" color-interpolation-filters="sRGB">
<feFlood flood-opacity="0" result="BackgroundImageFix"/>
<feColorMatrix in="SourceAlpha" type="matrix" values="0 0 0 0 0 0 0 0 0 0 0 0 0 0 0 0 0 0 127 0" result="hardAlpha"/>
<feOffset dy="4"/>
<feGaussianBlur stdDeviation="2"/>
<feComposite in2="hardAlpha" operator="out"/>
<feColorMatrix type="matrix" values="0 0 0 0 0 0 0 0 0 0 0 0 0 0 0 0 0 0 0.25 0"/>
<feBlend mode="normal" in2="BackgroundImageFix" result="effect1_dropShadow_5756_1409"/>
<feBlend mode="normal" in="SourceGraphic" in2="effect1_dropShadow_5756_1409" result="shape"/>
</filter>
<filter id="filter1_d_5756_1409" x="0.354492" y="44.752" width="164.864" height="99.6255" filterUnits="userSpaceOnUse" color-interpolation-filters="sRGB">
<feFlood flood-opacity="0" result="BackgroundImageFix"/>
<feColorMatrix in="SourceAlpha" type="matrix" values="0 0 0 0 0 0 0 0 0 0 0 0 0 0 0 0 0 0 127 0" result="hardAlpha"/>
<feOffset dy="4"/>
<feGaussianBlur stdDeviation="2"/>
<feComposite in2="hardAlpha" operator="out"/>
<feColorMatrix type="matrix" values="0 0 0 0 0 0 0 0 0 0 0 0 0 0 0 0 0 0 0.25 0"/>
<feBlend mode="normal" in2="BackgroundImageFix" result="effect1_dropShadow_5756_1409"/>
<feBlend mode="normal" in="SourceGraphic" in2="effect1_dropShadow_5756_1409" result="shape"/>
</filter>
<filter id="filter2_d_5756_1409" x="8.4834" y="39.9248" width="139.626" height="96.7734" filterUnits="userSpaceOnUse" color-interpolation-filters="sRGB">
<feFlood flood-opacity="0" result="BackgroundImageFix"/>
<feColorMatrix in="SourceAlpha" type="matrix" values="0 0 0 0 0 0 0 0 0 0 0 0 0 0 0 0 0 0 127 0" result="hardAlpha"/>
<feOffset dy="4"/>
<feGaussianBlur stdDeviation="2"/>
<feComposite in2="hardAlpha" operator="out"/>
<feColorMatrix type="matrix" values="0 0 0 0 0 0 0 0 0 0 0 0 0 0 0 0 0 0 0.25 0"/>
<feBlend mode="normal" in2="BackgroundImageFix" result="effect1_dropShadow_5756_1409"/>
<feBlend mode="normal" in="SourceGraphic" in2="effect1_dropShadow_5756_1409" result="shape"/>
</filter>
</defs>
</svg>
